<?xml version="1.0" encoding="utf-8"?>
<!-- Generator: Adobe Illustrator 21.0.0, SVG Export Plug-In . SVG Version: 6.00 Build 0)  -->
<svg version="1.1" id="Layer_1" xmlns="http://www.w3.org/2000/svg" xmlns:xlink="http://www.w3.org/1999/xlink" x="0px" y="0px"
	 viewBox="0 0 165 93" style="enable-background:new 0 0 165 93;" xml:space="preserve">
<style type="text/css">
	.st0{fill:#652D90;}
</style>
<g>
	<g>
		<path class="st0" d="M29.7,64.7l-2.4-3.6v0.4c0,0.3-0.2,0.5-0.5,0.5s-0.5-0.2-0.5-0.5v-1c0-0.2,0.1-0.4,0.3-0.4L25.9,59l-2.3,6.6
			l-6.7,1.9l5.6,4.1l-0.3,7l5.7-4l6.5,2.4l-2.1-6.7l4.3-5.5L29.7,64.7z M27.3,64.4c0,0.3-0.2,0.5-0.5,0.5s-0.5-0.2-0.5-0.5v-1
			c0-0.3,0.2-0.5,0.5-0.5s0.5,0.2,0.5,0.5V64.4z"/>
		<path class="st0" d="M27.3,36.5c0-0.3-0.2-0.5-0.5-0.5s-0.5,0.2-0.5,0.5v1c0,0.3,0.2,0.5,0.5,0.5s0.5-0.2,0.5-0.5V36.5z"/>
		<path class="st0" d="M27.3,30.5c0-0.3-0.2-0.5-0.5-0.5s-0.5,0.2-0.5,0.5v1c0,0.3,0.2,0.5,0.5,0.5s0.5-0.2,0.5-0.5V30.5z"/>
		<path class="st0" d="M27.3,33.5c0-0.3-0.2-0.5-0.5-0.5s-0.5,0.2-0.5,0.5v1c0,0.3,0.2,0.5,0.5,0.5s0.5-0.2,0.5-0.5V33.5z"/>
		<path class="st0" d="M27.3,27.5c0-0.3-0.2-0.5-0.5-0.5s-0.5,0.2-0.5,0.5v1c0,0.3,0.2,0.5,0.5,0.5s0.5-0.2,0.5-0.5V27.5z"/>
		<path class="st0" d="M27.3,12.4c0-0.3-0.2-0.5-0.5-0.5s-0.5,0.2-0.5,0.5v1c0,0.3,0.2,0.5,0.5,0.5s0.5-0.2,0.5-0.5V12.4z"/>
		<path class="st0" d="M27.3,9.4c0-0.3-0.2-0.5-0.5-0.5s-0.5,0.2-0.5,0.5v1c0,0.3,0.2,0.5,0.5,0.5s0.5-0.2,0.5-0.5V9.4z"/>
		<path class="st0" d="M27.3,6.7c0-0.3-0.2-0.5-0.5-0.5s-0.5,0.2-0.5,0.5v1c0,0.3,0.2,0.5,0.5,0.5s0.5-0.2,0.5-0.5V6.7z"/>
		<path class="st0" d="M27.3,4c0-0.3-0.2-0.5-0.5-0.5S26.3,3.7,26.3,4v1c0,0.3,0.2,0.5,0.5,0.5s0.5-0.2,0.5-0.5V4z"/>
		<path class="st0" d="M27.3,1c0-0.3-0.2-0.5-0.5-0.5S26.3,0.7,26.3,1v1c0,0.3,0.2,0.5,0.5,0.5s0.5-0.2,0.5-0.5V1z"/>
		<path class="st0" d="M27.3,15.4c0-0.3-0.2-0.5-0.5-0.5s-0.5,0.2-0.5,0.5v1c0,0.3,0.2,0.5,0.5,0.5s0.5-0.2,0.5-0.5V15.4z"/>
		<path class="st0" d="M27.3,18.5c0-0.3-0.2-0.5-0.5-0.5s-0.5,0.2-0.5,0.5v1c0,0.3,0.2,0.5,0.5,0.5s0.5-0.2,0.5-0.5V18.5z"/>
		<path class="st0" d="M27.3,21.5c0-0.3-0.2-0.5-0.5-0.5s-0.5,0.2-0.5,0.5v1c0,0.3,0.2,0.5,0.5,0.5s0.5-0.2,0.5-0.5V21.5z"/>
		<path class="st0" d="M27.3,24.5c0-0.3-0.2-0.5-0.5-0.5s-0.5,0.2-0.5,0.5v1c0,0.3,0.2,0.5,0.5,0.5s0.5-0.2,0.5-0.5V24.5z"/>
		<path class="st0" d="M27.3,39.5c0-0.3-0.2-0.5-0.5-0.5s-0.5,0.2-0.5,0.5v1c0,0.3,0.2,0.5,0.5,0.5s0.5-0.2,0.5-0.5V39.5z"/>
		<path class="st0" d="M27.3,54.5c0-0.3-0.2-0.5-0.5-0.5s-0.5,0.2-0.5,0.5v1c0,0.3,0.2,0.5,0.5,0.5s0.5-0.2,0.5-0.5V54.5z"/>
		<path class="st0" d="M26.8,57c-0.3,0-0.5,0.2-0.5,0.5v1c0,0.3,0.2,0.5,0.5,0.5s0.5-0.2,0.5-0.5v-1C27.3,57.2,27.1,57,26.8,57z"/>
		<path class="st0" d="M27.3,51.5c0-0.3-0.2-0.5-0.5-0.5s-0.5,0.2-0.5,0.5v1c0,0.3,0.2,0.5,0.5,0.5s0.5-0.2,0.5-0.5V51.5z"/>
		<path class="st0" d="M27.3,42.5c0-0.3-0.2-0.5-0.5-0.5s-0.5,0.2-0.5,0.5v1c0,0.3,0.2,0.5,0.5,0.5s0.5-0.2,0.5-0.5V42.5z"/>
		<path class="st0" d="M27.3,45.5c0-0.3-0.2-0.5-0.5-0.5s-0.5,0.2-0.5,0.5v1c0,0.3,0.2,0.5,0.5,0.5s0.5-0.2,0.5-0.5V45.5z"/>
		<path class="st0" d="M27.3,48.5c0-0.3-0.2-0.5-0.5-0.5s-0.5,0.2-0.5,0.5v1c0,0.3,0.2,0.5,0.5,0.5s0.5-0.2,0.5-0.5V48.5z"/>
		<path class="st0" d="M26.8,63c-0.3,0-0.5,0.2-0.5,0.5v1c0,0.3,0.2,0.5,0.5,0.5s0.5-0.2,0.5-0.5v-1C27.3,63.2,27.1,63,26.8,63z"/>
		<path class="st0" d="M26.3,60.5v1c0,0.3,0.2,0.5,0.5,0.5s0.5-0.2,0.5-0.5V61v-0.6c0-0.3-0.2-0.5-0.5-0.5c-0.1,0-0.2,0-0.2,0.1
			C26.4,60,26.3,60.3,26.3,60.5z"/>
	</g>
	<g>
		<path class="st0" d="M90.4,63.9c-8.4,0-15.1-6.7-15.1-15.1s6.7-15,15.1-15c0.9,0,1.8,0.1,2.7,0.3c-1.8-0.6-3.5-0.9-5.6-0.9
			c-3.8,0-7.4,1.3-10.3,3.3V37c0,0.4-0.3,0.6-0.6,0.6c-0.3,0-0.4-0.1-0.5-0.3c-3.5,3.2-6,7.9-6,13.2C70.1,60.1,78,68,87.6,68
			c8.5,0,15.5-6.1,17.1-14.1C102.5,59.8,97,63.9,90.4,63.9z"/>
		<path class="st0" d="M77.3,20.3c0-0.4-0.3-0.6-0.6-0.6s-0.6,0.3-0.6,0.6v1.3c0,0.4,0.3,0.6,0.6,0.6s0.6-0.3,0.6-0.6V20.3z"/>
		<path class="st0" d="M77.3,16.5c0-0.4-0.3-0.6-0.6-0.6s-0.6,0.3-0.6,0.6v1.3c0,0.4,0.3,0.6,0.6,0.6s0.6-0.3,0.6-0.6V16.5z"/>
		<path class="st0" d="M77.3,8.9c0-0.4-0.3-0.6-0.6-0.6s-0.6,0.3-0.6,0.6v1.3c0,0.4,0.3,0.6,0.6,0.6s0.6-0.3,0.6-0.6V8.9z"/>
		<path class="st0" d="M77.3,12.7c0-0.4-0.3-0.6-0.6-0.6s-0.6,0.3-0.6,0.6V14c0,0.4,0.3,0.6,0.6,0.6s0.6-0.3,0.6-0.6V12.7z"/>
		<path class="st0" d="M77.3,5.1c0-0.4-0.3-0.6-0.6-0.6c-0.4,0-0.6,0.3-0.6,0.6v1.3c0,0.4,0.3,0.6,0.6,0.6s0.6-0.3,0.6-0.6V5.1z"/>
		<path class="st0" d="M77.3,1.3c0-0.4-0.3-0.6-0.6-0.6c-0.4,0-0.6,0.3-0.6,0.6v1.3c0,0.4,0.3,0.6,0.6,0.6s0.6-0.3,0.6-0.6V1.3z"/>
		<path class="st0" d="M77.3,27.9c0-0.4-0.3-0.6-0.6-0.6s-0.6,0.3-0.6,0.6v1.3c0,0.4,0.3,0.6,0.6,0.6s0.6-0.3,0.6-0.6V27.9z"/>
		<path class="st0" d="M76.7,31.1c-0.4,0-0.6,0.3-0.6,0.6V33c0,0.4,0.3,0.6,0.6,0.6s0.6-0.3,0.6-0.6v-1.3
			C77.3,31.4,77.1,31.1,76.7,31.1z"/>
		<path class="st0" d="M77.3,24.1c0-0.4-0.3-0.6-0.6-0.6s-0.6,0.3-0.6,0.6v1.3c0,0.4,0.3,0.6,0.6,0.6s0.6-0.3,0.6-0.6V24.1z"/>
		<path class="st0" d="M76.7,37.5c0.4,0,0.6-0.3,0.6-0.6v-0.5v-0.8c0-0.4-0.3-0.6-0.6-0.6s-0.6,0.3-0.6,0.6v1.3c0,0.1,0,0.3,0.1,0.4
			C76.3,37.3,76.6,37.5,76.7,37.5z"/>
	</g>
	<g>
		<path class="st0" d="M139.6,56.1l-2.4-3.6v0.4c0,0.3-0.2,0.5-0.5,0.5s-0.5-0.2-0.5-0.5v-1c0-0.2,0.1-0.4,0.3-0.4l-0.7-1.1
			l-2.3,6.6l-6.7,1.9l5.6,4.1l-0.3,7l5.7-4l6.5,2.4l-2.1-6.7l4.3-5.5L139.6,56.1z M137.2,55.9c0,0.3-0.2,0.5-0.5,0.5
			s-0.5-0.2-0.5-0.5v-1c0-0.3,0.2-0.5,0.5-0.5s0.5,0.2,0.5,0.5V55.9z"/>
		<path class="st0" d="M137.2,27.9c0-0.3-0.2-0.5-0.5-0.5s-0.5,0.2-0.5,0.5v1c0,0.3,0.2,0.5,0.5,0.5s0.5-0.2,0.5-0.5V27.9z"/>
		<path class="st0" d="M137.2,21.9c0-0.3-0.2-0.5-0.5-0.5s-0.5,0.2-0.5,0.5v1c0,0.3,0.2,0.5,0.5,0.5s0.5-0.2,0.5-0.5V21.9z"/>
		<path class="st0" d="M137.2,24.9c0-0.3-0.2-0.5-0.5-0.5s-0.5,0.2-0.5,0.5v1c0,0.3,0.2,0.5,0.5,0.5s0.5-0.2,0.5-0.5V24.9z"/>
		<path class="st0" d="M137.2,18.9c0-0.3-0.2-0.5-0.5-0.5s-0.5,0.2-0.5,0.5v1c0,0.3,0.2,0.5,0.5,0.5s0.5-0.2,0.5-0.5V18.9z"/>
		<path class="st0" d="M137.2,3.9c0-0.3-0.2-0.5-0.5-0.5s-0.5,0.2-0.5,0.5v1c0,0.3,0.2,0.5,0.5,0.5s0.5-0.2,0.5-0.5V3.9z"/>
		<path class="st0" d="M137.2,6.9c0-0.3-0.2-0.5-0.5-0.5s-0.5,0.2-0.5,0.5v1c0,0.3,0.2,0.5,0.5,0.5s0.5-0.2,0.5-0.5V6.9z"/>
		<path class="st0" d="M137.2,9.9c0-0.3-0.2-0.5-0.5-0.5s-0.5,0.2-0.5,0.5v1c0,0.3,0.2,0.5,0.5,0.5s0.5-0.2,0.5-0.5V9.9z"/>
		<path class="st0" d="M137.2,12.9c0-0.3-0.2-0.5-0.5-0.5s-0.5,0.2-0.5,0.5v1c0,0.3,0.2,0.5,0.5,0.5s0.5-0.2,0.5-0.5V12.9z"/>
		<path class="st0" d="M137.2,15.9c0-0.3-0.2-0.5-0.5-0.5s-0.5,0.2-0.5,0.5v1c0,0.3,0.2,0.5,0.5,0.5s0.5-0.2,0.5-0.5V15.9z"/>
		<path class="st0" d="M137.2,30.9c0-0.3-0.2-0.5-0.5-0.5s-0.5,0.2-0.5,0.5v1c0,0.3,0.2,0.5,0.5,0.5s0.5-0.2,0.5-0.5V30.9z"/>
		<path class="st0" d="M137.2,45.9c0-0.3-0.2-0.5-0.5-0.5s-0.5,0.2-0.5,0.5v1c0,0.3,0.2,0.5,0.5,0.5s0.5-0.2,0.5-0.5V45.9z"/>
		<path class="st0" d="M136.7,48.4c-0.3,0-0.5,0.2-0.5,0.5v1c0,0.3,0.2,0.5,0.5,0.5s0.5-0.2,0.5-0.5v-1
			C137.2,48.6,137,48.4,136.7,48.4z"/>
		<path class="st0" d="M136.2,0.9v1c0,0.3,0.2,0.5,0.5,0.5s0.5-0.2,0.5-0.5v-1c0-0.1-0.1-0.3-0.2-0.4h-0.7
			C136.3,0.6,136.2,0.7,136.2,0.9z"/>
		<path class="st0" d="M137.2,42.9c0-0.3-0.2-0.5-0.5-0.5s-0.5,0.2-0.5,0.5v1c0,0.3,0.2,0.5,0.5,0.5s0.5-0.2,0.5-0.5V42.9z"/>
		<path class="st0" d="M137.2,33.9c0-0.3-0.2-0.5-0.5-0.5s-0.5,0.2-0.5,0.5v1c0,0.3,0.2,0.5,0.5,0.5s0.5-0.2,0.5-0.5V33.9z"/>
		<path class="st0" d="M137.2,36.9c0-0.3-0.2-0.5-0.5-0.5s-0.5,0.2-0.5,0.5v1c0,0.3,0.2,0.5,0.5,0.5s0.5-0.2,0.5-0.5V36.9z"/>
		<path class="st0" d="M137.2,39.9c0-0.3-0.2-0.5-0.5-0.5s-0.5,0.2-0.5,0.5v1c0,0.3,0.2,0.5,0.5,0.5s0.5-0.2,0.5-0.5V39.9z"/>
		<path class="st0" d="M136.7,54.4c-0.3,0-0.5,0.2-0.5,0.5v1c0,0.3,0.2,0.5,0.5,0.5s0.5-0.2,0.5-0.5v-1
			C137.2,54.6,137,54.4,136.7,54.4z"/>
		<path class="st0" d="M136.2,51.9v1c0,0.3,0.2,0.5,0.5,0.5s0.5-0.2,0.5-0.5v-0.4v-0.6c0-0.3-0.2-0.5-0.5-0.5c-0.1,0-0.2,0-0.2,0.1
			C136.3,51.5,136.2,51.7,136.2,51.9z"/>
	</g>
</g>
</svg>
