<?xml version="1.0" encoding="utf-8"?>
<!-- Generator: Adobe Illustrator 21.0.0, SVG Export Plug-In . SVG Version: 6.00 Build 0)  -->
<svg version="1.1" id="Layer_1" xmlns="http://www.w3.org/2000/svg" xmlns:xlink="http://www.w3.org/1999/xlink" x="0px" y="0px"
	 viewBox="0 0 55.7 81.8" style="enable-background:new 0 0 55.7 81.8;" xml:space="preserve">
<style type="text/css">
	.st0{fill:#E8E8E8;}
</style>
<path class="st0" d="M45.3,0.4v0.2h6L55,4.4l-3.6,3.7h-6v6.1L41.7,18L38,14.2V8.1h-6l-3.7-3.8l3.6-3.7h6V0.4H31l-3,3v-3h-0.8v3l-3-3
	h-6.9v0.2h6L27,4.4l-3.7,3.8h-6v6.1l-3.7,3.8l-3.7-3.8V8.1h-6L0.6,4.8v1.1l2.9,3h5l-2.9,2.9H2.3l-1.7-1.7v1.1l1.1,1.1l-1,3H0.6v0.8
	c1,0.4,1.6,1.4,1.6,2.5s-0.7,2.1-1.6,2.5v1.7l1.1,2l-1.1,1.1V27l1.7-1.7h3.3l2.9,2.9h-5l-2.9,3v1.1L3.8,29h6v-6.1l3.7-3.8l3.7,3.8
	V29h6l3.7,3.8l-3.6,3.8h-6v6.1l-3.7,3.8l-3.7-3.8v-6.1h-6l-3.2-3.3v1.1l2.9,3h5l-2.9,2.9H2.3l-1.7-1.7v1.1l1.1,1.1l-1,3H0.6v0.8
	c1,0.4,1.6,1.4,1.6,2.5s-0.7,2.1-1.6,2.5v1.7l1.1,2l-1.1,1.1v1.1l1.7-1.7h3.3l2.9,2.9h-5l-2.9,3v1.1l3.2-3.3h6v-6.1l3.7-3.8l3.7,3.8
	v6.1h6l3.7,3.8l-3.7,3.8h-6v6.1L13.5,75l-3.7-3.8v-6.1h-6l-3.2-3.3v1.1l2.9,3h5l-2.9,2.9H2.3l-1.7-1.7v1.1l1.1,1.1l-1,3H0.6v0.8
	c1,0.4,1.6,1.4,1.6,2.5c0,1.1-0.7,2.1-1.6,2.5v1.7l0.9,1.6h4.6v-3.3l2.4-2.4h4.1l-3.5,3.7v1.9h0.7v-1.5l3.7-3.8l3.7,3.8v1.5H18v-1.9
	l-3.5-3.6h4.1l2.4,2.4v3.1h0.7c0-0.1,0-3,0-3l3.1-0.8c0.3,0.4,0.7,0.8,1.2,1l-1.3,2.8h0.7l1.3-2.6c0.3,0.1,0.5,0.1,0.8,0.1
	c0.2,0,0.4,0,0.6-0.1l1.4,2.6h4.7v-3.3l2.4-2.4h4.1l-3.6,3.6v2h0.8v-1.6l3.7-3.8l3.7,3.8v1.6h0.8v-1.9l-3.5-3.6h4.1l2.4,2.4v3.1h0.7
	v-3l3.1-0.8c0.3,0.4,0.7,0.8,1.2,1l-1.3,2.8h0.8l1.2-2.6c0.1,0,0.2,0.1,0.3,0.1v-0.7c-1.3-0.2-2.2-1.3-2.2-2.7s0.9-2.4,2.2-2.7v-0.7
	c-0.2,0-0.4,0.1-0.6,0.1l-1-2.9l1.6-1.7v-1.1l-2.2,2.2h-3.3l-2.9-2.9h5l3.4-3.4v-2.4l-3.4-3.4h-5l2.9-3h3.3l2.2,2.2v-1.1l-1.6-1.7
	l1.3-2.7c0.1,0,0.2,0.1,0.3,0.1v-0.8C53.9,49.4,53,48.3,53,47s0.9-2.4,2.1-2.6v-0.7c-0.2,0-0.4,0.1-0.6,0.1l-1-2.9l1.6-1.7v-1.1
	l-2.2,2.2h-3.3l-2.9-2.9h5l3.4-3.4v-2.3l-3.4-3.4h-5l2.9-3h3.3l2.2,2.2v-1.2l-1.6-1.7l1.3-2.7c0.1,0,0.2,0.1,0.3,0.1v-0.7
	c-1.3-0.2-2.2-1.3-2.2-2.7s0.9-2.4,2.2-2.7v-0.7c-0.2,0-0.4,0.1-0.6,0.1l-1-2.9l1.6-1.7V9.7l-2.2,2.2h-3.3L46.7,9h5V8.9l3.4-3.4V3.3
	l-2.9-2.9H45.3z M6.1,12.4L9,9.5v5.1l3.6,3.6H8.5l-2.4-2.4V12.4z M1.1,15.5l0.3,0.1l1-3h3v3l-3.1,0.8C2,16.1,1.6,15.7,1.1,15.5z
	 M5.4,24.5h-3l-1.5-2.7c0.6-0.2,1-0.6,1.4-1.1l3.1,0.8V24.5z M2.7,19.9C2.9,19.5,3,19,3,18.5s-0.1-1-0.3-1.4l3-0.8l2.1,2.3l-2.2,2.2
	L2.7,19.9z M9.1,22.6v5.1l-2.9-2.9v-3.4L8.6,19h4.1L9.1,22.6z M6.1,40.8L9,37.9V43l3.6,3.6H8.5l-2.4-2.4V40.8z M1.1,44l0.3,0.1l1-3
	h3v3l-3.1,0.8C2,44.5,1.6,44.2,1.1,44z M5.4,53h-3l-1.5-2.7c0.6-0.2,1-0.6,1.4-1.1l3.1,0.7V53z M2.7,48.4C2.9,48,3,47.5,3,47
	s-0.1-1-0.3-1.4l3-0.8L7.9,47l-2.2,2.2L2.7,48.4z M9.1,51v5.1l-2.9-2.9v-3.4l2.4-2.4h4.1L9.1,51z M1.1,72.4l0.3,0.1l1-3h3v3
	l-3.1,0.8C2,73,1.6,72.7,1.1,72.4z M5.4,81.4h-3l-1.5-2.7c0.6-0.2,1-0.6,1.4-1.1l3.1,0.8V81.4z M5.7,77.7l-3-0.8
	C2.9,76.5,3,76,3,75.5s-0.1-1-0.3-1.4l3-0.8l2.2,2.2L5.7,77.7z M8.5,75.1l-2.4-2.4v-3.4L9,66.4v5.1l3.6,3.6H8.5z M40.7,18.2h-4.1
	l-2.4-2.4v-3.4l2.9-2.9v5.1L40.7,18.2z M40.7,46.6h-4.1l-2.4-2.4v-3.4l2.9-2.9V43L40.7,46.6z M30.7,19.9c0.2-0.4,0.3-0.9,0.3-1.4
	s-0.1-1-0.3-1.4l3-0.8l2.2,2.2l-2.2,2.2L30.7,19.9z M33.4,21.5v3h-3l-1.5-2.7c0.6-0.2,1-0.6,1.4-1.1L33.4,21.5z M33.5,15.6
	L33.5,15.6l-3.2,0.8c-0.3-0.4-0.7-0.7-1.1-1l0.3,0.1l1-3h3V15.6z M30.3,18.6c0,1.5-1.2,2.7-2.7,2.7s-2.7-1.2-2.7-2.7
	s1.2-2.7,2.7-2.7S30.3,17.1,30.3,18.6z M24.8,16.5l-3.1-0.9v-3h3l1.1,3h0.1C25.5,15.8,25.1,16.1,24.8,16.5z M24.4,17.2
	c-0.2,0.4-0.3,0.9-0.3,1.4s0.1,1,0.3,1.4l-3,0.8l-2.1-2.2l2.2-2.2L24.4,17.2z M21.7,21.5l3.1-0.8c0.3,0.4,0.7,0.8,1.2,1l-1.3,2.9h-3
	V21.5z M26.7,21.9C27,22,27.2,22,27.5,22c0.2,0,0.4,0,0.6-0.1l1.5,2.8l-2.1,2.1l-2.1-2.2L26.7,21.9z M29.7,40.8l-1,3
	c-0.4-0.1-0.8-0.2-1.2-0.2c-0.4,0-0.8,0.1-1.1,0.2l-1-2.9l2.1-2.2L29.7,40.8z M30.3,49.1l3.1,0.8v3h-3l-1.5-2.7
	C29.5,50,30,49.6,30.3,49.1z M27.6,49.7c-1.5,0-2.7-1.2-2.7-2.7s1.2-2.7,2.7-2.7s2.7,1.2,2.7,2.7S29.1,49.7,27.6,49.7z M30.7,48.4
	C30.9,48,31,47.5,31,47s-0.1-1-0.3-1.4l3-0.8l2.2,2.2l-2.2,2.2L30.7,48.4z M33.5,44.1L33.5,44.1l-3.2,0.8c-0.3-0.4-0.7-0.7-1.1-1
	l0.3,0.1l1-3h3V44.1z M25.8,44.1c-0.3,0.2-0.7,0.5-0.9,0.9l-3.1-0.8v-3h3L25.8,44.1z M24.4,45.6c-0.2,0.4-0.3,0.9-0.3,1.4
	s0.1,1,0.3,1.4l-3,0.8L19.2,47l2.2-2.2L24.4,45.6z M21.7,49.9l3.1-0.8c0.3,0.4,0.7,0.8,1.2,1L24.7,53h-3V49.9z M26.7,50.4
	c0.3,0.1,0.5,0.1,0.8,0.1c0.2,0,0.4,0,0.6-0.1l1.5,2.8l-2.1,2.1l-2.1-2.2L26.7,50.4z M29.7,69.3l-1,3c-0.4-0.1-0.8-0.2-1.2-0.2
	c-0.4,0-0.8,0.1-1.1,0.2l-1-2.9l2.1-2.2L29.7,69.3z M29.6,72.4l0.9-2.9h3v3l-3.1,0.8c-0.3-0.4-0.7-0.7-1.1-1L29.6,72.4z M30.4,68.8
	L28,66.4v-4.2l3.6,3.6h5l-2.9,3H30.4z M28,56l2.4-2.4h3.3v0.1l2.9,2.9h-5L28,60.2V56z M34.2,53.2v-3.4l2.4-2.4h4.1L37.1,51v5.1
	L34.2,53.2z M33.7,40.3h-3.3L28,37.9v-4.2l3.6,3.6h5L33.7,40.3z M28,27.6l2.4-2.4h3.3v0.1l2.9,2.9h-5L28,31.8V27.6z M34.2,24.8v-3.4
	l2.4-2.4h4.1l-3.6,3.6v5.1L34.2,24.8z M28,5.3l3.6,3.6h5l-2.9,2.9h-3.3L28,9.4V5.3z M27.6,10.2l2.1,2.2l-1,3
	c-0.4-0.1-0.8-0.2-1.2-0.2c-0.4,0-0.8,0.1-1.1,0.2l-1-2.9L27.6,10.2z M23.6,9V8.9l3.6-3.6v4.2l-2.4,2.4h-3.3L18.6,9H23.6z M18,14.6
	V9.4l2.9,2.9v3.4l-2.4,2.4h-4.1L18,14.6z M14.5,19h4.1l2.4,2.4v3.4l-2.9,2.9v-5.1L14.5,19z M23.6,28.2h-5l2.9-2.9h3.3l2.4,2.4v4.2
	L23.6,28.2z M23.6,37.5v-0.1l3.6-3.6V38l-2.4,2.4h-3.3l-2.9-2.9H23.6z M18,43v-5.1l2.9,2.9v3.4l-2.3,2.4h-4.1L18,43z M14.5,47.4h4.1
	l2.4,2.4v3.4l-2.9,2.9V51L14.5,47.4z M23.6,56.7h-5l2.9-2.9h3.3l2.4,2.4v4.2L23.6,56.7z M23.6,65.9L23.6,65.9l3.6-3.7v4.2l-2.4,2.4
	h-3.3l-2.9-2.9H23.6z M18.5,75.1h-4.1l3.6-3.6v-5.1l2.9,2.9v3.4L18.5,75.1z M24.4,76.9l-3,0.8l-2.2-2.2l2.2-2.2l3,0.8
	c-0.2,0.4-0.3,0.9-0.3,1.4S24.2,76.5,24.4,76.9z M21.7,72.6v-3h3l1.1,2.9c-0.3,0.2-0.7,0.5-0.9,0.9L21.7,72.6z M27.6,78.2
	c-1.5,0-2.7-1.2-2.7-2.7s1.2-2.7,2.7-2.7s2.7,1.2,2.7,2.7S29.1,78.2,27.6,78.2z M33.4,81.4h-3l-1.5-2.7c0.6-0.3,1.1-0.7,1.4-1.1
	l3.1,0.8V81.4z M33.7,77.7l-3-0.8c0.2-0.4,0.3-0.9,0.3-1.4c0-0.5-0.1-1-0.3-1.4l3-0.8l2.2,2.2L33.7,77.7z M36.6,75.1l-2.4-2.4v-3.4
	l2.9-2.9v5.1l3.6,3.6H36.6z M49.8,69.6h3l1.1,2.9c-0.3,0.2-0.7,0.5-0.9,0.9l-3.2-0.8V69.6z M52.5,74.1c-0.2,0.4-0.3,0.9-0.3,1.4
	s0.1,1,0.3,1.4l-3,0.8l-2.1-2.2l2.2-2.2L52.5,74.1z M49,69.3v3.4l-2.4,2.4h-4.1l3.6-3.6v-5.1L49,69.3z M51.3,57.5l3.7,3.8L51.4,65
	h-6v6.1l-3.7,3.8L38,71.1V65h-6l-3.7-3.8l3.7-3.8h6v-6.1l3.7-3.8l3.6,3.9v6.1H51.3z M49.1,53.2l-2.9,2.9V51l-3.6-3.6h4.1l2.4,2.4
	V53.2z M54.1,50.1L52.8,53h-3v-3l3.1-0.8C53.2,49.5,53.6,49.9,54.1,50.1z M49.9,41.2h3l1,2.9c-0.3,0.2-0.7,0.5-0.9,0.9l-3.1-0.8
	V41.2z M52.5,45.6c-0.2,0.4-0.3,0.9-0.3,1.4s0.1,1,0.3,1.4l-3,0.8L47.4,47l2.2-2.2L52.5,45.6z M49,40.9v3.4l-2.3,2.3h-4.1l3.6-3.6
	v-5.1L49,40.9z M51.3,29l3.7,3.8l-3.6,3.8h-6v6.1l-3.7,3.8L38,42.7v-6.1h-6l-3.7-3.8L32,29h6v-6.1l3.7-3.8l3.6,3.8V29H51.3z
	 M49.1,24.8l-2.9,2.9v-5.1L42.6,19h4.1l2.4,2.4V24.8z M54.1,21.7l-1.3,2.8h-3v-3l3.1-0.8C53.2,21.1,53.6,21.5,54.1,21.7z M49.8,12.6
	h3l1,3h0.1c-0.4,0.2-0.7,0.5-1,0.9l-3.1-0.9V12.6z M52.5,17.2c-0.2,0.4-0.3,0.9-0.3,1.4s0.1,1,0.3,1.4l-3,0.8l-2.1-2.2l2.2-2.2
	L52.5,17.2z M49,12.3v3.4l-2.4,2.4h-4.1l3.6-3.5V9.4L49,12.3z"/>
</svg>
